<svg width="489" height="238" viewBox="0 0 489 238" fill="none" xmlns="http://www.w3.org/2000/svg">
<circle cx="411.5" cy="73.5" r="73.5" fill="#D1A474"/>
<path d="M191.322 191.336H189.869C189.697 191.227 189.611 191.133 189.611 191.055C189.611 190.961 189.697 190.859 189.869 190.75H197.673C197.752 190.75 197.814 190.781 197.861 190.844C197.923 190.891 197.955 190.953 197.955 191.031C197.955 191.125 197.923 191.203 197.861 191.266C197.814 191.312 197.752 191.336 197.673 191.336H196.127V225.391H197.111C197.814 225.391 198.431 225.195 198.962 224.805C199.494 224.398 200.009 223.57 200.509 222.32C201.244 220.477 201.775 218.469 202.103 216.297C202.447 214.109 202.627 212.711 202.642 212.102C202.658 211.883 202.689 211.742 202.736 211.68L202.923 211.609L203.111 211.68C203.173 211.742 203.205 211.812 203.205 211.891L203.017 226H189.869C189.791 226 189.72 225.977 189.658 225.93C189.611 225.867 189.587 225.789 189.587 225.695C189.587 225.602 189.611 225.531 189.658 225.484C189.72 225.422 189.791 225.391 189.869 225.391H191.322V191.336ZM212.725 201.461H211.858C211.717 201.367 211.647 201.273 211.647 201.18C211.647 201.07 211.717 200.961 211.858 200.852H216.92V224.383C216.92 224.57 216.967 224.711 217.061 224.805C217.155 224.898 217.287 224.945 217.459 224.945C217.803 224.945 218.147 224.695 218.491 224.195C219.037 223.414 219.311 222.461 219.311 221.336V201.461H218.397C218.319 201.461 218.256 201.438 218.209 201.391C218.178 201.344 218.162 201.266 218.162 201.156C218.162 201.062 218.178 200.992 218.209 200.945C218.256 200.883 218.319 200.852 218.397 200.852H223.53V225.391H224.327C224.405 225.391 224.467 225.422 224.514 225.484C224.577 225.531 224.608 225.602 224.608 225.695C224.608 225.789 224.577 225.867 224.514 225.93C224.467 225.977 224.405 226 224.327 226H219.311V224.125C218.811 224.922 218.295 225.484 217.764 225.812C217.248 226.125 216.631 226.281 215.912 226.281C214.866 226.281 214.069 226.008 213.522 225.461C212.991 224.898 212.725 224.148 212.725 223.211V201.461ZM234.058 201.461H233.05L232.933 201.414C232.87 201.352 232.839 201.273 232.839 201.18C232.839 201.07 232.909 200.961 233.05 200.852H239.073C239.152 200.852 239.214 200.883 239.261 200.945C239.323 201.008 239.355 201.086 239.355 201.18C239.355 201.289 239.308 201.375 239.214 201.438L238.23 201.461L239.8 208.938L241.628 202.844C241.659 202.766 241.675 202.688 241.675 202.609C241.675 202.312 241.581 202.055 241.394 201.836C241.222 201.617 241.027 201.492 240.808 201.461C240.667 201.445 240.566 201.414 240.503 201.367C240.456 201.32 240.433 201.258 240.433 201.18C240.433 201.086 240.464 201.016 240.527 200.969C240.605 200.891 240.698 200.852 240.808 200.852H243.714C243.792 200.852 243.855 200.883 243.902 200.945C243.964 200.992 243.995 201.062 243.995 201.156C243.995 201.25 243.972 201.32 243.925 201.367C243.894 201.414 243.823 201.445 243.714 201.461C242.948 201.602 242.386 202.273 242.027 203.477L240.058 210.133L243.316 225.391H243.995C244.089 225.391 244.159 225.422 244.206 225.484C244.269 225.531 244.3 225.602 244.3 225.695C244.3 225.789 244.269 225.867 244.206 225.93C244.159 225.977 244.089 226 243.995 226H237.831C237.753 226 237.691 225.977 237.644 225.93C237.597 225.867 237.573 225.789 237.573 225.695C237.573 225.602 237.597 225.531 237.644 225.484C237.691 225.422 237.753 225.391 237.831 225.391H239.073L237.175 216.555L235.112 223.656C235.066 223.797 235.042 223.922 235.042 224.031C235.042 224.375 235.152 224.68 235.37 224.945C235.605 225.211 235.847 225.359 236.097 225.391C236.222 225.406 236.308 225.438 236.355 225.484C236.402 225.531 236.425 225.594 236.425 225.672C236.425 225.766 236.394 225.836 236.331 225.883C236.253 225.961 236.167 226 236.073 226H233.05C232.894 225.891 232.816 225.789 232.816 225.695C232.816 225.602 232.831 225.531 232.862 225.484C232.909 225.438 232.972 225.406 233.05 225.391C233.394 225.328 233.659 225.18 233.847 224.945C234.128 224.57 234.448 223.781 234.808 222.578L236.964 215.406L234.058 201.461ZM253.469 201.461H252.602C252.461 201.367 252.391 201.273 252.391 201.18C252.391 201.07 252.461 200.961 252.602 200.852H257.664V224.383C257.664 224.57 257.711 224.711 257.805 224.805C257.898 224.898 258.031 224.945 258.203 224.945C258.547 224.945 258.891 224.695 259.234 224.195C259.781 223.414 260.055 222.461 260.055 221.336V201.461H259.141C259.062 201.461 259 201.438 258.953 201.391C258.922 201.344 258.906 201.266 258.906 201.156C258.906 201.062 258.922 200.992 258.953 200.945C259 200.883 259.062 200.852 259.141 200.852H264.273V225.391H265.07C265.148 225.391 265.211 225.422 265.258 225.484C265.32 225.531 265.352 225.602 265.352 225.695C265.352 225.789 265.32 225.867 265.258 225.93C265.211 225.977 265.148 226 265.07 226H260.055V224.125C259.555 224.922 259.039 225.484 258.508 225.812C257.992 226.125 257.375 226.281 256.656 226.281C255.609 226.281 254.812 226.008 254.266 225.461C253.734 224.898 253.469 224.148 253.469 223.211V201.461ZM275.458 203.336C275.677 203.258 275.887 203.203 276.091 203.172C276.294 203.125 276.481 203.102 276.653 203.102C277.278 203.102 277.802 203.328 278.223 203.781C278.661 204.234 278.88 204.828 278.88 205.562C278.88 206.312 278.661 206.914 278.223 207.367C277.786 207.82 277.2 208.047 276.466 208.047C275.731 208.047 275.153 207.82 274.731 207.367C274.309 206.898 274.098 206.211 274.098 205.305C274.098 203.961 274.606 202.836 275.622 201.93C276.637 201.023 278.083 200.57 279.958 200.57C281.645 200.57 282.856 200.891 283.591 201.531C284.341 202.156 284.716 202.961 284.716 203.945V224.195C284.716 224.43 284.778 224.625 284.903 224.781C285.028 224.922 285.161 224.992 285.302 224.992C285.692 224.992 286.091 224.578 286.497 223.75C286.606 223.5 286.716 223.375 286.825 223.375L287.106 223.633C287.106 224.18 286.755 224.758 286.052 225.367C285.348 225.977 284.505 226.281 283.52 226.281C282.677 226.281 282.02 226.086 281.552 225.695C281.098 225.305 280.755 224.617 280.52 223.633C279.802 224.695 279.169 225.406 278.622 225.766C278.091 226.109 277.458 226.281 276.723 226.281C275.833 226.281 275.145 226.055 274.661 225.602C274.192 225.133 273.958 224.523 273.958 223.773V214.938C273.958 213.984 274.161 213.281 274.567 212.828C274.989 212.375 276.216 211.812 278.247 211.141C279.153 210.828 279.911 210.516 280.52 210.203V203.453C280.52 202.75 280.333 202.203 279.958 201.812C279.598 201.422 279.122 201.227 278.528 201.227C277.153 201.227 276.13 201.93 275.458 203.336ZM280.52 210.93C279.52 211.32 278.872 211.711 278.575 212.102C278.294 212.492 278.153 213.117 278.153 213.977V223.891C278.153 224.219 278.208 224.461 278.317 224.617C278.442 224.773 278.591 224.852 278.762 224.852C279.012 224.852 279.294 224.586 279.606 224.055C280.216 223.07 280.52 221.883 280.52 220.492V210.93ZM295.759 201.461H294.775C294.681 201.461 294.603 201.438 294.541 201.391C294.494 201.328 294.47 201.25 294.47 201.156C294.47 201.062 294.494 200.992 294.541 200.945C294.603 200.883 294.681 200.852 294.775 200.852H299.884V203.945C300.416 202.539 300.908 201.625 301.361 201.203C301.83 200.781 302.322 200.57 302.837 200.57C303.541 200.57 304.173 200.922 304.736 201.625C305.455 202.531 305.814 203.672 305.814 205.047C305.814 206.219 305.572 207.109 305.087 207.719C304.619 208.312 304.095 208.609 303.517 208.609C303.048 208.609 302.658 208.406 302.345 208C301.923 207.453 301.712 206.672 301.712 205.656C301.712 204.656 302.009 203.695 302.603 202.773C302.9 202.305 303.048 201.984 303.048 201.812C303.048 201.672 302.994 201.555 302.884 201.461C302.775 201.352 302.642 201.297 302.486 201.297C302.189 201.297 301.908 201.438 301.642 201.719C301.189 202.188 300.783 203.039 300.423 204.273C300.064 205.492 299.884 206.883 299.884 208.445V225.391H301.08C301.189 225.391 301.275 225.422 301.337 225.484C301.4 225.547 301.431 225.617 301.431 225.695L301.361 225.906C301.267 225.969 301.173 226 301.08 226H294.775C294.697 226 294.627 225.977 294.564 225.93C294.517 225.867 294.494 225.789 294.494 225.695C294.494 225.602 294.517 225.531 294.564 225.484C294.627 225.422 294.697 225.391 294.775 225.391H295.759V201.461ZM314.491 201.461H313.412C313.256 201.367 313.178 201.266 313.178 201.156C313.178 201.062 313.256 200.961 313.412 200.852H319.694C319.772 200.852 319.834 200.883 319.881 200.945C319.944 201.008 319.975 201.078 319.975 201.156C319.975 201.25 319.944 201.328 319.881 201.391C319.834 201.438 319.772 201.461 319.694 201.461H318.616L320.725 219.461L322.741 205.305C322.819 204.789 322.858 204.312 322.858 203.875C322.858 203.016 322.741 202.422 322.506 202.094C322.287 201.766 321.959 201.57 321.522 201.508L321.194 201.414C321.147 201.352 321.123 201.273 321.123 201.18C321.123 201.07 321.139 200.992 321.17 200.945C321.217 200.883 321.28 200.852 321.358 200.852H324.897C324.991 200.852 325.061 200.883 325.108 200.945C325.17 201.008 325.202 201.086 325.202 201.18C325.202 201.258 325.178 201.32 325.131 201.367C325.1 201.414 325.022 201.445 324.897 201.461C324.678 201.523 324.491 201.688 324.334 201.953C323.897 202.688 323.592 203.617 323.42 204.742L319.928 229.398C319.678 231.18 319.147 232.508 318.334 233.383C317.522 234.273 316.694 234.719 315.85 234.719C315.178 234.719 314.584 234.422 314.069 233.828C313.553 233.25 313.295 232.484 313.295 231.531C313.295 230.719 313.491 230.086 313.881 229.633C314.287 229.195 314.756 228.977 315.287 228.977C315.803 228.977 316.248 229.18 316.623 229.586C317.014 229.992 317.209 230.492 317.209 231.086C317.209 232.008 316.803 232.727 315.991 233.242C315.772 233.383 315.662 233.523 315.662 233.664C315.662 233.758 315.702 233.836 315.78 233.898C315.873 233.977 316.006 234.016 316.178 234.016C316.756 234.016 317.319 233.695 317.866 233.055C318.6 232.18 319.123 230.781 319.436 228.859L319.928 226H317.397L314.491 201.461Z" fill="#1B1B1B"/>
<path d="M59.1125 46.625H55.925C55.7167 46.625 55.5292 46.5625 55.3625 46.4375C55.2375 46.2708 55.175 46.0625 55.175 45.8125C55.175 45.5625 55.2375 45.375 55.3625 45.25C55.5292 45.0833 55.7167 45 55.925 45H75.8625C76.0708 45 76.2375 45.0833 76.3625 45.25C76.5292 45.375 76.6125 45.5625 76.6125 45.8125C76.6125 46.0625 76.55 46.2708 76.425 46.4375C76.3 46.5625 76.1125 46.625 75.8625 46.625H72.05L77.4875 115.812L84.8625 52.9375C84.9458 52.3542 84.9875 51.7708 84.9875 51.1875C84.9875 49.8125 84.8 48.7708 84.425 48.0625C84.05 47.3542 83.5083 46.9167 82.8 46.75L80.8 46.5625C80.55 46.3958 80.425 46.1458 80.425 45.8125C80.425 45.5625 80.6542 45.2917 81.1125 45H90.55C90.7583 45 90.925 45.0625 91.05 45.1875C91.175 45.3125 91.2375 45.4792 91.2375 45.6875C91.2375 45.8958 91.175 46.0625 91.05 46.1875C90.9667 46.3125 90.8 46.3958 90.55 46.4375C89.55 46.5625 88.7792 47 88.2375 47.75C87.3625 49.0417 86.7583 51.1875 86.425 54.1875L76.9875 133.25C76.6125 136.5 76.3417 138.271 76.175 138.562C76.0083 138.854 75.6958 139 75.2375 139H69.2375C68.9042 139 68.6542 138.833 68.4875 138.5C68.3208 138.167 68.0083 135.771 67.55 131.312L59.1125 46.625ZM113.938 50.8125C113.938 49.0208 114.583 47.4792 115.875 46.1875C117.167 44.8958 118.688 44.25 120.438 44.25C122.312 44.25 123.896 44.8958 125.188 46.1875C126.479 47.4375 127.125 48.9792 127.125 50.8125C127.125 52.6458 126.479 54.2083 125.188 55.5C123.896 56.7917 122.333 57.4375 120.5 57.4375C118.708 57.4375 117.167 56.7917 115.875 55.5C114.583 54.2083 113.938 52.6458 113.938 50.8125ZM114.875 73.5625H112.438C112.188 73.5625 111.979 73.5 111.812 73.375C111.688 73.2083 111.625 73 111.625 72.75C111.625 72.5 111.688 72.3125 111.812 72.1875C111.979 72.0208 112.188 71.9375 112.438 71.9375H126V137.375H128.688C128.938 137.375 129.125 137.458 129.25 137.625C129.417 137.75 129.5 137.958 129.5 138.25C129.5 138.458 129.417 138.646 129.25 138.812C129.125 138.938 128.938 139 128.688 139H112.438C112.021 138.708 111.812 138.438 111.812 138.188C111.812 137.896 112.021 137.625 112.438 137.375H114.875V73.5625ZM166.388 45V137.375H168.825C169.033 137.375 169.2 137.458 169.325 137.625C169.492 137.75 169.575 137.938 169.575 138.188C169.575 138.438 169.492 138.646 169.325 138.812C169.2 138.938 169.033 139 168.825 139H152.513C152.304 139 152.117 138.938 151.95 138.812C151.825 138.646 151.763 138.438 151.763 138.188C151.763 137.938 151.825 137.75 151.95 137.625C152.117 137.458 152.304 137.375 152.513 137.375H155.138V46.5625H152.513C152.263 46.5625 152.054 46.5 151.888 46.375C151.721 46.2083 151.638 46.0208 151.638 45.8125C151.638 45.5625 151.721 45.375 151.888 45.25C152.054 45.0833 152.263 45 152.513 45H166.388ZM207.463 45V137.375H209.9C210.108 137.375 210.275 137.458 210.4 137.625C210.567 137.75 210.65 137.938 210.65 138.188C210.65 138.438 210.567 138.646 210.4 138.812C210.275 138.938 210.108 139 209.9 139H193.588C193.379 139 193.192 138.938 193.025 138.812C192.9 138.646 192.838 138.438 192.838 138.188C192.838 137.938 192.9 137.75 193.025 137.625C193.192 137.458 193.379 137.375 193.588 137.375H196.213V46.5625H193.588C193.338 46.5625 193.129 46.5 192.963 46.375C192.796 46.2083 192.713 46.0208 192.713 45.8125C192.713 45.5625 192.796 45.375 192.963 45.25C193.129 45.0833 193.338 45 193.588 45H207.463ZM238.163 78.5625C238.746 78.3542 239.308 78.2083 239.85 78.125C240.392 78 240.892 77.9375 241.35 77.9375C243.017 77.9375 244.413 78.5417 245.538 79.75C246.704 80.9583 247.288 82.5417 247.288 84.5C247.288 86.5 246.704 88.1042 245.538 89.3125C244.371 90.5208 242.808 91.125 240.85 91.125C238.892 91.125 237.35 90.5208 236.225 89.3125C235.1 88.0625 234.538 86.2292 234.538 83.8125C234.538 80.2292 235.892 77.2292 238.6 74.8125C241.308 72.3958 245.163 71.1875 250.163 71.1875C254.663 71.1875 257.892 72.0417 259.85 73.75C261.85 75.4167 262.85 77.5625 262.85 80.1875V134.188C262.85 134.812 263.017 135.333 263.35 135.75C263.683 136.125 264.038 136.312 264.413 136.312C265.454 136.312 266.517 135.208 267.6 133C267.892 132.333 268.183 132 268.475 132L269.225 132.688C269.225 134.146 268.288 135.688 266.413 137.312C264.538 138.938 262.288 139.75 259.663 139.75C257.413 139.75 255.663 139.229 254.413 138.188C253.204 137.146 252.288 135.312 251.663 132.688C249.746 135.521 248.058 137.417 246.6 138.375C245.183 139.292 243.496 139.75 241.538 139.75C239.163 139.75 237.329 139.146 236.038 137.938C234.788 136.688 234.163 135.062 234.163 133.062V109.5C234.163 106.958 234.704 105.083 235.788 103.875C236.913 102.667 240.183 101.167 245.6 99.375C248.017 98.5417 250.038 97.7083 251.663 96.875V78.875C251.663 77 251.163 75.5417 250.163 74.5C249.204 73.4583 247.933 72.9375 246.35 72.9375C242.683 72.9375 239.954 74.8125 238.163 78.5625ZM251.663 98.8125C248.996 99.8542 247.267 100.896 246.475 101.938C245.725 102.979 245.35 104.646 245.35 106.938V133.375C245.35 134.25 245.496 134.896 245.788 135.312C246.121 135.729 246.517 135.938 246.975 135.938C247.642 135.938 248.392 135.229 249.225 133.812C250.85 131.188 251.663 128.021 251.663 124.312V98.8125ZM295.612 134.812C294.821 135.438 293.862 136.521 292.737 138.062C291.904 139.188 291.279 139.75 290.862 139.75C290.696 139.75 290.55 139.688 290.425 139.562C290.3 139.438 290.237 139.25 290.237 139V109.688C290.237 109.396 290.3 109.188 290.425 109.062C290.592 108.896 290.779 108.812 290.987 108.812C291.237 108.812 291.425 108.896 291.55 109.062C291.675 109.229 291.779 109.896 291.862 111.062C292.404 119.146 293.779 125.896 295.987 131.312C297.571 135.229 299.446 137.188 301.612 137.188C302.696 137.188 303.675 136.667 304.55 135.625C305.425 134.542 305.862 133 305.862 131C305.862 128.708 305.362 125.917 304.362 122.625C303.404 119.292 301.342 114.167 298.175 107.25C295.05 100.292 293.029 95.2708 292.112 92.1875C291.237 89.1042 290.8 86.3958 290.8 84.0625C290.8 80.2292 291.842 77.125 293.925 74.75C296.05 72.375 298.508 71.1875 301.3 71.1875C303.8 71.1875 306.217 72.3333 308.55 74.625C309.175 74.2083 310.112 73.3958 311.362 72.1875C312.071 71.5625 312.55 71.25 312.8 71.25C312.967 71.25 313.112 71.2917 313.237 71.375C313.362 71.5417 313.425 71.7292 313.425 71.9375V98.3125C313.425 98.6042 313.342 98.8333 313.175 99C313.008 99.1667 312.821 99.25 312.612 99.25C312.362 99.25 312.175 99.1458 312.05 98.9375C311.925 98.7292 311.821 98.1042 311.737 97.0625C311.196 89.3542 310.029 83.1042 308.237 78.3125C306.946 74.9792 305.258 73.3125 303.175 73.3125C302.008 73.3125 301.029 73.75 300.237 74.625C299.446 75.5 299.05 76.6875 299.05 78.1875C299.05 81.9792 301.529 88.8333 306.487 98.75C309.821 105.333 312.092 110.583 313.3 114.5C314.508 118.417 315.112 121.875 315.112 124.875C315.112 129.417 313.946 133.042 311.612 135.75C309.279 138.417 306.571 139.75 303.487 139.75C301.904 139.75 300.508 139.396 299.3 138.688C298.133 137.938 296.904 136.646 295.612 134.812ZM349.062 139C348.771 138.958 348.562 138.875 348.438 138.75C348.312 138.583 348.25 138.396 348.25 138.188C348.25 137.938 348.312 137.75 348.438 137.625C348.562 137.458 348.771 137.375 349.062 137.375H353.375V112.562H339.375L358.938 46C359.062 45.625 359.208 45.375 359.375 45.25C359.542 45.0833 359.771 45 360.062 45H363.75C364.125 45 364.417 45.1042 364.625 45.3125C364.833 45.4792 364.938 45.7083 364.938 46V111.125H371.562C371.854 111.125 372.062 111.208 372.188 111.375C372.354 111.5 372.438 111.646 372.438 111.812C372.438 112.021 372.375 112.188 372.25 112.312C372.042 112.479 371.812 112.562 371.562 112.562H364.938V137.375H368.812C369.062 137.375 369.25 137.458 369.375 137.625C369.542 137.75 369.625 137.938 369.625 138.188C369.625 138.438 369.542 138.646 369.375 138.812C369.208 138.938 369.021 139 368.812 139H349.062ZM353.375 71.5L341.688 111.125H353.375V71.5ZM397.388 46.625H393.7C393.242 46.2917 393.013 46.0208 393.013 45.8125C393.013 45.5625 393.242 45.2917 393.7 45H413.763C413.971 45 414.138 45.0833 414.263 45.25C414.388 45.375 414.45 45.5417 414.45 45.75C414.45 46.0417 414.388 46.2708 414.263 46.4375C414.138 46.5625 413.971 46.625 413.763 46.625H410.263V132.625C410.263 134.375 410.742 135.729 411.7 136.688C412.658 137.646 413.95 138.125 415.575 138.125C418.533 138.125 420.971 136.958 422.888 134.625C424.846 132.25 425.825 128.521 425.825 123.438V54.625C425.825 51.5 425.554 49.5208 425.013 48.6875C424.513 47.8125 423.533 47.2083 422.075 46.875C421.325 46.7083 420.825 46.5208 420.575 46.3125C420.367 46.0625 420.263 45.8125 420.263 45.5625L420.388 45.125L420.888 45H430.763C431.013 45 431.325 45.2292 431.7 45.6875C431.7 45.8958 431.596 46.0833 431.388 46.25C431.221 46.4167 430.908 46.5417 430.45 46.625C429.617 46.75 428.971 47.2292 428.513 48.0625C427.721 49.3958 427.325 51.5833 427.325 54.625V125.188C427.325 130.021 426.075 133.688 423.575 136.188C421.117 138.688 417.554 139.938 412.888 139.938C407.013 139.938 402.763 138.438 400.138 135.438C398.304 133.312 397.388 129.312 397.388 123.438V46.625Z" fill="black"/>
<line x1="55" y1="167.35" x2="460" y2="167.35" stroke="black" stroke-width="3.3"/>
<path fill-rule="evenodd" clip-rule="evenodd" d="M354.292 198.25C355.684 198.25 357.039 198.706 358.148 199.548C359.257 200.39 360.06 201.572 360.434 202.914L360.508 203.204L363.157 202.543C363.351 202.494 363.552 202.488 363.749 202.523C363.945 202.558 364.132 202.634 364.297 202.746C364.462 202.859 364.601 203.005 364.706 203.175C364.81 203.345 364.878 203.535 364.904 203.732L364.917 203.917V206.481C365.715 207.247 366.37 208.15 366.849 209.147L367.045 209.583H367.75C368.097 209.583 368.432 209.711 368.691 209.941C368.951 210.172 369.116 210.49 369.157 210.834L369.167 211V215.25C369.167 215.483 369.109 215.713 368.999 215.918C368.889 216.124 368.73 216.299 368.536 216.429L368.383 216.517L366.729 217.345C366.051 218.656 365.07 219.785 363.867 220.639L363.5 220.885V222.333C363.5 222.68 363.373 223.015 363.142 223.275C362.911 223.534 362.594 223.699 362.249 223.74L362.083 223.75H357.833C357.486 223.75 357.151 223.623 356.892 223.392C356.633 223.161 356.467 222.844 356.427 222.499L356.417 222.333H355C355 222.68 354.873 223.015 354.642 223.275C354.411 223.534 354.094 223.699 353.749 223.74L353.583 223.75H349.333C348.986 223.75 348.651 223.623 348.392 223.392C348.133 223.161 347.967 222.844 347.927 222.499L347.917 222.333V220.885C346.893 220.231 346.009 219.381 345.315 218.384C344.621 217.387 344.131 216.263 343.874 215.076C343.038 214.827 342.299 214.328 341.757 213.645C341.215 212.963 340.895 212.131 340.842 211.261L340.833 211V210.292C340.834 209.931 340.972 209.583 341.22 209.321C341.468 209.058 341.807 208.9 342.167 208.879C342.527 208.858 342.882 208.975 343.159 209.207C343.436 209.439 343.614 209.767 343.657 210.126L343.667 210.292V211C343.667 211.21 343.712 211.409 343.794 211.588C344.01 210.313 344.493 209.097 345.21 208.02C345.927 206.944 346.863 206.03 347.956 205.339C347.856 204.447 347.945 203.544 348.217 202.689C348.49 201.834 348.94 201.046 349.538 200.377C350.136 199.708 350.868 199.172 351.688 198.806C352.507 198.439 353.394 198.25 354.292 198.25ZM360.667 209.583C360.291 209.583 359.931 209.733 359.665 209.998C359.399 210.264 359.25 210.624 359.25 211C359.25 211.376 359.399 211.736 359.665 212.002C359.931 212.267 360.291 212.417 360.667 212.417C361.042 212.417 361.403 212.267 361.668 212.002C361.934 211.736 362.083 211.376 362.083 211C362.083 210.624 361.934 210.264 361.668 209.998C361.403 209.733 361.042 209.583 360.667 209.583ZM354.292 201.083C353.434 201.083 352.605 201.395 351.959 201.96C351.313 202.525 350.895 203.306 350.781 204.156C351.468 203.997 352.17 203.916 352.875 203.917H357.659L357.758 203.893C357.59 203.098 357.154 202.385 356.523 201.873C355.892 201.362 355.104 201.083 354.292 201.083Z" fill="#D1A474"/>
</svg>
